<?xml version="1.0" encoding="UTF-8" standalone="no"?>
<svg
   width="5.1474099mm"
   height="5.1474099mm"
   viewBox="0 0 5.1474099 5.1474099"
   version="1.1"
   id="svg2394"
   xmlns="http://www.w3.org/2000/svg"
   xmlns:svg="http://www.w3.org/2000/svg"
   xmlns:rdf="http://www.w3.org/1999/02/22-rdf-syntax-ns#"
   xmlns:cc="http://creativecommons.org/ns#"
   xmlns:dc="http://purl.org/dc/elements/1.1/">
  <defs
     id="defs2388" />
  <metadata
     id="metadata2391">
    <rdf:RDF>
      <cc:Work
         rdf:about="">
        <dc:format>image/svg+xml</dc:format>
        <dc:type
           rdf:resource="http://purl.org/dc/dcmitype/StillImage" />
      </cc:Work>
    </rdf:RDF>
  </metadata>
  <rect
     style="display:inline;opacity:0.2;fill:#00000a;fill-opacity:1;fill-rule:nonzero;stroke:#000000;stroke-width:0.145254;stroke-linecap:butt;stroke-linejoin:miter;stroke-miterlimit:4;stroke-dasharray:none;stroke-opacity:1;paint-order:normal"
     id="rect14891-3"
     width="5.0021558"
     height="5.0021558"
     x="0.072626844"
     y="0.072626926"
     ry="0.49100322"
     rx="0.49100322" />
  <g
     id="path856"
     transform="matrix(0.23161064,-0.03049212,0.03049212,0.23161064,2.8718217,1.3186432)"
     style="stroke:none;fill:#00000a;fill-opacity:1">
    <path
       style="color:#000000;fill:#00000a;fill-rule:evenodd;stroke-linecap:round;stroke-linejoin:round;-inkscape-stroke:none;paint-order:markers stroke fill;stroke:none;fill-opacity:1"
       d="m -3.3886719,-2.6816406 a 1.7124312,1.7124312 0 0 0 -1.265625,0.3398437 L -8.5175781,0.62109375 A 1.7124312,1.7124312 0 0 0 -9.171875,1.7558594 l -0.6347656,4.8261718 a 1.7124312,1.7124312 0 0 0 0.3378906,1.265625 l 2.9628906,3.8632818 a 1.7124312,1.7124312 0 0 0 1.1367188,0.654296 l 4.82617185,0.636719 a 1.7124312,1.7124312 0 0 0 1.265625,-0.339844 L 4.5839844,9.6992188 A 1.7124312,1.7124312 0 0 0 5.2382812,8.5644531 L 5.875,3.7382813 A 1.7124312,1.7124312 0 0 0 5.5351562,2.4707031 L 2.5722656,-1.390625 A 1.7124312,1.7124312 0 0 0 1.4375,-2.0449219 Z M -3.1328125,0.80664063 0.28710938,1.2578125 2.3867188,3.9941406 1.9355469,7.4140625 -0.80078125,9.5136719 -4.2207031,9.0625 -6.3203125,6.3261719 -5.8691406,2.90625 Z"
       id="path1595" />
    <path
       style="color:#000000;fill:#00000a;fill-rule:evenodd;stroke-width:3.42452;stroke-linecap:round;stroke-linejoin:round;-inkscape-stroke:none;paint-order:markers stroke fill;stroke:none;fill-opacity:1"
       d="M 3.5415916,8.3400316 -0.32033798,11.303394 -5.1465484,10.668012 -8.1099111,6.8060822 -7.4745285,1.9798717 -3.6125989,-0.983491 1.2136115,-0.34810832 4.1769742,3.5138212 Z"
       id="path1597" />
  </g>
</svg>
